<?xml version="1.0" encoding="UTF-8"?>
<svg height="128px" viewBox="0 0 128 128" width="128px" xmlns="http://www.w3.org/2000/svg" xmlns:xlink="http://www.w3.org/1999/xlink">
    <linearGradient id="a" gradientTransform="matrix(-0.8 0 0 -1 109.599998 -168)" gradientUnits="userSpaceOnUse" x1="2" x2="112" y1="-300" y2="-300">
        <stop offset="0" stop-color="#7c6f49"/>
        <stop offset="0.0357143" stop-color="#ebdfbd"/>
        <stop offset="0.0713653" stop-color="#a08f5e"/>
        <stop offset="0.928571" stop-color="#ab9b6f"/>
        <stop offset="0.964286" stop-color="#ebdfbd"/>
        <stop offset="1" stop-color="#7c6f49"/>
    </linearGradient>
    <filter id="b" height="100%" width="100%" x="0%" y="0%">
        <feColorMatrix in="SourceGraphic" type="matrix" values="0 0 0 0 1 0 0 0 0 1 0 0 0 0 1 0 0 0 1 0"/>
    </filter>
    <mask id="c">
        <g filter="url(#b)">
            <rect fill-opacity="0.5" height="128" width="128"/>
        </g>
    </mask>
    <linearGradient id="d" gradientTransform="matrix(0.75 0 0 1.294118 114 -237.176468)" gradientUnits="userSpaceOnUse" x1="-32" x2="-32" y1="208" y2="276">
        <stop offset="0" stop-color="#008287"/>
        <stop offset="1" stop-color="#003436"/>
    </linearGradient>
    <clipPath id="e">
        <rect height="152" width="192"/>
    </clipPath>
    <path d="m 100 120 h -72 c -4.417969 0 -8 -3.582031 -8 -8 v -60 c 0 -4.417969 3.582031 -8 8 -8 h 72 c 4.417969 0 8 3.582031 8 8 v 60 c 0 4.417969 -3.582031 8 -8 8 z m 0 0" fill="url(#a)"/>
    <path d="m 28 8 h 72 c 4.417969 0 8 3.582031 8 8 v 88 c 0 4.417969 -3.582031 8 -8 8 h -72 c -4.417969 0 -8 -3.582031 -8 -8 v -88 c 0 -4.417969 3.582031 -8 8 -8 z m 0 0" fill="#e1d09e"/>
    <path d="m 28 12 h 72 c 2.210938 0 4 1.789062 4 4 v 88 c 0 2.210938 -1.789062 4 -4 4 h -72 c -2.210938 0 -4 -1.789062 -4 -4 v -88 c 0 -2.210938 1.789062 -4 4 -4 z m 0 0" fill="#002b36"/>
    <path d="m 28 16 h 72 v 88 h -72 z m 0 0" fill="#3d3846"/>
    <g clip-path="url(#e)" mask="url(#c)" transform="matrix(1 0 0 1 -8 -16)">
        <path d="m 36 32 h 72 v 88 h -72 z m 0 0" fill="url(#d)"/>
    </g>
    <g fill="#f2f0bd">
        <path d="m 64 88 h 24 v 4 h -24 z m 0 0"/>
        <path d="m 74.769531 52 h -18.769531 l 15.460938 -23 h -18.460938 l -15 31 h 19.453125 l -10.644531 32.09375 z m 0 0"/>
    </g>
</svg>
